<svg class="favicon" width="132" height="132" viewBox="0 0 132 132" fill="none" xmlns="http://www.w3.org/2000/svg">
  <style>
    path {
      fill: #030303;
    }
    @media (prefers-color-scheme: dark) {
      path {
        fill: white;
      }
    }
  </style>

  <path d="M103.379 41.3543H92.307C92.1927 15.483 88.3995 6.43367 74.2742 6.43367L68.8604 6.38449H61.2555C61.2555 5.94431 61.2555 6.18653 61.2555 5.81643V5.25083V5H75.5025C92.1066 5 103.389 13.9276 103.389 40.3707C103.389 40.4137 103.389 41.5668 103.389 40.801L103.379 41.3543ZM77.9629 76.3333H61.2322V113.435C61.2322 119.175 60.4121 121.84 57.1328 127.785V127.99H75.9132V127.785C72.4286 121.635 71.8138 119.175 71.8138 113.435V77.7682H77.3481C91.6062 77.7682 102.927 68.1196 103.379 41.3543H92.3083C92.2615 63.5247 89.5442 76.3333 77.9617 76.3333H77.9629Z" fill="black"/>
  <path d="M122 40.7572L103.372 40.5457C103.371 40.7707 103.365 40.9908 103.363 41.2158L103.357 41.6511C103.356 41.7986 103.351 41.9437 103.349 42.0913L121.999 41.8527V40.7584L122 40.7572ZM92.3023 41.6498V41.2133C92.3023 40.9613 92.301 40.7154 92.2998 40.467C92.2998 40.451 92.2998 40.4363 92.2998 40.4203L76.6536 40.242H76.6499C69.2405 40.242 63.212 34.2134 63.212 26.7955L62.8431 13.5137H61.2533L60.8844 26.8053C60.8844 34.2147 54.857 40.242 47.4391 40.242L10 40.7707V41.854L47.4465 42.4306C54.8558 42.4306 60.8832 48.4592 60.8844 55.8772L61.2533 69.2979H62.8431L63.212 55.8673C63.212 48.458 69.2405 42.4306 76.6536 42.4306L92.3023 42.2302C92.3023 42.0347 92.3047 41.8453 92.3047 41.6486H92.3023V41.6498ZM92.3023 40.4658H92.2998C92.2998 40.7141 92.3023 40.9613 92.3023 41.2121V40.8389V40.4658Z" fill="black"/>
  <path d="M92.2969 40.4609L103.371 40.5821L103.347 42.0812L92.2993 42.216L92.2969 40.4609Z" fill="white"/>
</svg>
