<svg viewBox="0 0 15 16" fill="none" xmlns="http://www.w3.org/2000/svg"><path d="M5.248 8.799h4.254" stroke="currentColor" stroke-width="1.063" stroke-linecap="round" stroke-linejoin="round"/><path d="M1.028 2.626a.352.352 0 0 1 .136-.34C1.657 1.937 3.349 1 7.38 1c4.031 0 5.724.936 6.217 1.287a.352.352 0 0 1 .136.34l-1.205 9.034a2.836 2.836 0 0 1-1.404 2.087l-.226.13a7.09 7.09 0 0 1-7.035 0l-.226-.13a2.836 2.836 0 0 1-1.404-2.087L1.028 2.626Z" stroke="currentColor" stroke-width="1.063"/><path d="M1 3.127c1.823 1.89 10.938 1.89 12.76 0" stroke="currentColor" stroke-width="1.063"/></svg>