<svg viewBox="0 0 19 16" fill="none" xmlns="http://www.w3.org/2000/svg"><path d="M8.5 8c0 2.14-.489 4.052-1.254 5.412C6.472 14.787 5.482 15.5 4.5 15.5s-1.972-.713-2.746-2.088C.989 12.052.5 10.139.5 8c0-2.14.489-4.052 1.254-5.412C2.528 1.213 3.518.5 4.5.5s1.972.713 2.746 2.088C8.011 3.948 8.5 5.86 8.5 8ZM18.5 8c0 2.14-.489 4.052-1.254 5.412-.774 1.375-1.764 2.088-2.746 2.088s-1.972-.713-2.746-2.088C10.989 12.052 10.5 10.139 10.5 8c0-2.14.489-4.052 1.254-5.412C12.528 1.213 13.518.5 14.5.5s1.972.713 2.746 2.088C18.011 3.948 18.5 5.86 18.5 8Z" stroke="currentColor"/><ellipse cx="2" cy="7.5" rx="1" ry="1.5" fill="currentColor"/><ellipse cx="12" cy="7.5" rx="1" ry="1.5" fill="currentColor"/></svg>