<svg xmlns="http://www.w3.org/2000/svg" width="908" height="224" fill="none" viewBox="0 0 908 224"><path fill="#000" d="M82.401 63.802c0 50.393-20.6 66.944-46.712 66.944h-9.934v64.002c0 10.298 1.102 14.712 7.355 25.748v.369H.007v-.369c5.885-10.667 7.356-15.45 7.356-25.748V26.285c0-10.298-1.471-15.08-7.356-25.747v-.37h32.37c29.792 0 50.024 16.183 50.024 63.634ZM62.538 66.01c0-48.189-6.622-63.27-32.37-63.27h-4.413v125.432H36.79c20.965 0 25.747-21.703 25.747-62.162Zm25.748 75.039c0-47.082 14.347-82.025 37.516-82.025 23.169 0 37.517 34.943 37.517 82.025 0 47.081-14.348 82.025-37.517 82.025-23.169 0-37.516-35.313-37.516-82.025Zm55.175 0c0-40.096-2.209-79.822-17.659-79.822-15.449 0-17.653 39.726-17.653 79.822 0 40.095 2.209 79.821 17.653 79.821 15.444 0 17.659-40.095 17.659-79.821Zm93.062-55.545c-17.659-20.965-21.334-23.907-25.748-23.907-10.667 0-14.711 21.703-14.711 69.523 0 44.508 4.782 76.879 23.543 76.879 11.406 0 16.921-12.139 19.863-23.175h.739c-2.573 20.232-11.406 38.255-28.69 38.255-22.067 0-33.841-24.276-33.841-75.771 0-51.495 11.036-88.279 36.414-88.279 7.725 0 16.182 2.21 21.334 3.68l1.471 22.806h-.369l-.005-.011Zm93.425 136.468h-9.196c-10.667 0-11.769-2.21-18.392-22.073l-21.704-64.371h-6.992v61.798c0 9.196 1.102 12.877 6.992 23.174v.37h-32.001v-.37c5.885-10.297 6.992-13.978 6.992-23.174V27.387c0-11.036-1.102-15.45-7.724-26.85V.169h25.747v133.157h2.209c4.045 0 5.516-.739 8.827-6.987l18.023-33.103c3.68-6.986 4.044-8.457 4.044-12.876 0-5.516-2.209-10.298-7.356-18.392v-.37h26.117v.37c-11.769 16.92-14.717 21.703-20.601 32.37l-12.508 22.805 37.517 104.836.006-.005Zm66.944-37.153c-2.942 20.232-11.769 38.255-30.161 38.255-22.436 0-34.574-24.277-34.574-75.772 0-51.495 10.667-88.278 33.472-88.278 20.965 0 30.899 29.797 30.899 69.523v4.044h-45.979c0 39.357 4.413 75.408 24.645 75.408 12.138 0 18.023-12.508 20.965-23.175h.739l-.006-.005Zm-46.349-55.176v.369h27.588v-1.471c0-39.726-2.209-67.314-13.24-67.314s-14.348 25.379-14.348 68.416Zm51.864-68.052h11.037l1.102-37.516h16.92v37.516h19.494v2.573h-19.494V194.01c0 13.24 4.045 19.13 11.406 19.13 5.151 0 8.463-3.68 9.934-7.355h.738c-2.573 9.934-8.827 17.29-19.863 17.29-13.24 0-20.232-9.929-20.232-26.486V64.171h-11.036v-2.573l-.006-.006Zm166.987 2.21c0 50.393-20.596 66.944-46.712 66.944h-9.935v64.002c0 10.298 1.102 14.712 7.356 25.748v.369H487v-.369c5.884-10.667 7.356-15.45 7.356-25.748V26.285c0-10.298-1.472-15.08-7.356-25.747v-.37h32.37c29.798 0 50.024 16.183 50.024 63.634Zm-19.863 2.209c0-48.189-6.623-63.27-32.37-63.27h-4.414v125.432h11.037c20.965 0 25.747-21.703 25.747-62.162Zm64.735 154.49v.37h-32.001v-.37c5.885-10.297 6.987-13.978 6.987-23.174V87.345c0-10.298-1.102-14.347-7.356-25.378v-.37h25.378v135.73c0 9.196 1.102 12.877 6.992 23.174ZM584.838 30.329c0-6.992 5.516-13.24 12.877-13.24 7.361 0 12.876 6.254 12.876 13.24 0 6.987-5.515 13.24-12.876 13.24s-12.877-6.253-12.877-13.24ZM688.93 184.82c-2.942 20.232-11.769 38.255-30.161 38.255-22.436 0-34.574-24.277-34.574-75.772 0-51.495 10.667-88.278 33.472-88.278 20.965 0 30.899 29.797 30.899 69.523v4.044h-45.979c0 39.357 4.413 75.408 24.645 75.408 12.139 0 18.023-12.508 20.965-23.175h.739l-.006-.005Zm-46.349-55.176v.369h27.588v-1.471c0-39.726-2.209-67.314-13.24-67.314s-14.348 25.379-14.348 68.416Zm116.969-44.14c-17.654-20.964-21.334-23.906-25.748-23.906-10.667 0-14.711 21.703-14.711 69.523 0 44.508 4.783 76.879 23.544 76.879 11.405 0 16.92-12.139 19.863-23.175h.738c-2.573 20.232-11.405 38.255-28.69 38.255-22.072 0-33.841-24.276-33.841-75.771 0-51.495 11.036-88.279 36.414-88.279 7.725 0 16.188 2.21 21.334 3.68l1.471 22.806h-.369l-.005-.011Zm76.873 99.316c-2.942 20.232-11.769 38.255-30.161 38.255-22.441 0-34.58-24.277-34.58-75.772 0-51.495 10.668-88.278 33.473-88.278 20.965 0 30.899 29.797 30.899 69.523v4.044h-45.98c0 39.357 4.414 75.408 24.646 75.408 12.138 0 18.022-12.508 20.965-23.175h.738v-.005Zm-46.349-55.176v.369h27.588v-1.471c0-39.726-2.209-67.314-13.24-67.314s-14.348 25.379-14.348 68.416Zm113.294-44.14c-17.659-21.702-20.965-24.276-27.588-24.276-7.725 0-12.877 6.623-12.877 19.125 0 16.183 8.827 29.428 21.704 47.82 12.876 18.392 22.436 31.632 22.436 54.437 0 22.806-11.037 40.465-31.263 40.465-8.094 0-16.921-1.841-22.805-3.681l-3.681-29.059h.369c16.921 26.486 21.703 30.53 29.428 30.53 8.827 0 14.348-8.827 14.348-23.543 0-19.494-9.196-33.473-22.436-52.603-13.24-19.125-21.334-32.37-21.334-50.024 0-20.232 10.667-35.681 29.428-35.681 8.094 0 16.921 1.84 22.436 3.311l2.209 23.174h-.369l-.005.006Z"/></svg>