<svg xmlns="http://www.w3.org/2000/svg" width="657" height="366" fill="none" viewBox="0 0 657 366"><path fill="currentColor" d="m401.642 125.505-26.545-.303c-.276-62.02-9.369-81.574-43.233-81.574l-12.982-.114h-18.234V40.19h34.155c39.802 0 66.832 21.623 66.832 85.011v.303h.007Zm-60.935 85.692h-40.112v88.948c0 13.757-1.969 20.147-9.828 34.397v.492h45.026v-.492c-8.351-14.742-9.827-20.64-9.827-34.397v-85.503h13.265c34.181 0 61.265-21.267 62.35-85.43l-26.484.337c-.114 53.149-6.626 81.655-34.39 81.655v-.007Zm105.59-85.186-44.655-.506c0 .539-.014 1.065-.021 1.604l-.013 1.045c0 .357-.014.701-.02 1.052l44.709-.573v-2.622Zm-71.193 2.143v-2.952l-37.511-.425h-.007c-17.761 0-32.212-14.451-32.212-32.24l-.883-31.842h-3.809l-.883 31.863c0 17.761-14.451 32.212-32.233 32.212l-89.756 1.274v2.596l89.77 1.381c17.761 0 32.212 14.452 32.212 32.24l.883 32.173h3.809l.883-32.2c0-17.761 14.452-32.213 32.226-32.213l37.518-.478v-1.396l-.007.007Zm0-2.838v1.793-1.793Zm185.202 186.672c30.191-16.716 53.911-36.196 70.506-57.914 17.276-22.608 26.032-46.658 26.032-71.47 0-24.812-8.756-48.862-26.032-71.47-16.595-21.718-40.315-41.204-70.506-57.914C498.422 18.958 416.181.091 328.736.091c-87.444 0-169.685 18.867-231.577 53.129-30.19 16.716-53.91 36.197-70.505 57.914C9.378 133.742.622 157.792.622 182.604c0 24.812 8.756 48.862 26.032 71.47 16.595 21.718 40.315 41.204 70.505 57.914 61.885 34.262 144.126 53.129 231.57 53.129 87.445 0 169.686-18.867 231.571-53.129h.006Zm92.601-129.384c0 98.465-145.426 178.576-324.171 178.576S4.558 281.069 4.558 182.604c0-98.465 145.427-178.576 324.178-178.576 178.752 0 324.171 80.11 324.171 178.576Z"/></svg>