<svg xmlns="http://www.w3.org/2000/svg" fill="none" viewBox="0 0 489 367"><path fill="#000" d="M355.334 10.2c-17.467 11.334-26.267 16.134-33.467 18.134-13.467 3.866-22.8 10-35.6 23.2-6.533 6.666-16.8 15.733-22.933 20.133-14.934 10.8-56.934 42.933-66 50.4-4 3.333-7.467 5.867-7.6 5.733-.267-.133 1.6-7.466 4.133-16.266 9.333-33.2 10-45.6 2.4-53.2-4-4-12.667-4.534-19.333-1.2-5.867 3.066-19.334 12.266-22.4 15.333-1.467 1.467-3.067 2.533-3.6 2.533-1.467 0-22.8 21.6-27.2 27.334-1.6 2.133-3.734 4.8-4.667 5.733-2.933 3.067-8.533 13.2-11.2 20.533-5.867 16.267-1.467 30.534 14 45.334l8 7.6-3.2 3.6c-1.867 2-5.733 5.733-8.533 8.4-12.8 11.733-42.134 43.2-56.267 60.133C52.134 265.4 37.334 285 37.334 286.2c0 .4-1.734 3.2-3.867 6.4-14.4 21.6-20.8 40.134-19.333 55.067 1.333 13.333 9.2 20.133 21.066 18.8 6.267-.8 18-5.2 19.467-7.333.4-.534 3.2-2.667 6.4-4.667C74.934 345.8 88 331.8 108 304.067c3.334-4.667 7.334-10.8 8.934-13.733 1.466-2.934 5.333-9.867 8.266-15.334 7.867-14.533 33.334-66.4 36-73.733 1.467-3.6 1.6-3.733 9.467-3.067 4.267.4 9.2 1.067 10.933 1.467 5.2 1.333 15.734 1.6 15.734.4 0-.533-.534-1.067-1.2-1.067-3.2 0-22.667-2.933-27.067-4.133L164 193.534l2.134-4.934c4-9.333 12.133-30.266 14.533-37.6 3.333-10.133 6.933-16.266 11.467-19.333 2.133-1.467 12.8-10 23.733-19.067 11.067-8.933 20.4-16.266 20.8-16.266.533 0 4.133-2.667 7.867-6 3.866-3.334 7.733-6 8.533-6 .8 0 1.6-.4 1.867-1.067.8-1.867 11.866-9.867 12.666-9.2.4.4-.533 2.533-2 4.533-2.4 3.334-5.466 9.334-15.866 30.4C242.667 123.4 232 146.467 232 147.534c0 .4-1.733 4.4-3.866 9.066-2 4.667-6.667 15.334-10.134 23.734-3.466 8.4-7.2 16.266-8.133 17.333-1.067 1.067-3.733 1.733-6.667 1.6-3.466-.267-4.666.133-4.266 1.333.4 1.067 2.133 1.6 4.533 1.334l3.867-.534-4.134 4.534c-13.866 14.8-33.733 43.333-43.866 62.933-13.2 25.467-16.934 43.067-12 54.933 1.733 4.4 2.133 4.534 4.133 2.667 1.067-1.2 2.533-2.133 3.067-2.133.933 0 10.8-12.667 10.8-14 0-.4 2.133-4.267 4.933-8.4 2.667-4.134 6.4-11.2 8.4-15.6s5.467-11.867 7.733-16.667c2.267-4.8 6.534-14.667 9.6-22 3.067-7.333 6.4-15.2 7.334-17.333 1.066-2.267 3.333-7.867 5.2-12.534 5.866-14.666 5.2-14.133 20.266-14.533 7.334-.133 16.534-.933 20.534-1.733 4-.667 8.533-1.334 10-1.467 4.133-.133 11.333-2.533 11.333-3.733 0-.534-3.467-.267-7.6.8-9.867 2.533-47.067 4.133-47.067 2.133 0-2.133 8.934-13.6 16.534-20.933 15.2-14.8 48.8-46.534 50.4-47.467 3.733-2.4 3.6-.933-.8 5.067-6 8.666-8.267 13.333-9.334 20-.666 4.8-.4 5.866 2.534 8.133 3.066 2.4 3.733 2.533 8.8.667 3.066-.934 7.333-2.8 9.733-4 2.267-1.334 7.2-2.4 11.067-2.667 7.2-.267 19.2-4.667 21.866-7.867.8-1.066 2.4-1.866 3.467-1.866 1.067 0 5.6-2.534 10-5.6 6.533-4.534 8.133-5.2 9.2-3.6.667.933 1.2 2.933 1.2 4.133 0 2.533 7.2 6.667 8.933 5.067.534-.534 3.867-1.867 7.334-3.067 5.866-2 6.266-1.867 8.666.667 2.934 3.333 8.667 2.666 17.734-2.134l6.4-3.333 3.333 2.533c4.4 3.467 7.467 3.334 14.933-.666 5.734-2.934 6.534-3.067 9.334-1.2 2.8 1.733 3.866 1.733 11.466-.934 4.667-1.6 9.067-3.333 9.734-4 2.4-2.133 4.8-1.2 5.6 2.134C455.2 142.867 460.8 147 465.467 147c2.133 0 3.867.534 3.867 1.067 0 .667-8.534 5.467-18.934 10.667-10.533 5.2-26.8 13.866-36.4 19.066-25.2 13.867-29.066 15.867-46.666 25.2-8.8 4.534-17.6 9.467-19.6 10.8-1.867 1.467-4 2.534-4.534 2.534-1.6 0-30.4 17.733-30.933 18.933-.267.533-1.2 1.067-2.133 1.067-2.667 0-24.8 16-36.934 26.533-6.266 5.6-13.466 11.867-16 14-10.533 8.8-12.8 11.2-16.8 17.6-2.4 3.733-4.4 7.733-4.4 8.933 0 2.8.134 2.667 19.734-16.4 7.866-7.733 16.933-15.866 20.266-18 3.2-2.266 6.934-4.933 8.134-6 1.2-1.066 4.133-3.466 6.533-5.333 2.4-1.867 6.267-4.933 8.533-6.8 2.267-1.867 9.867-7.333 16.8-12 6.934-4.667 12.934-8.933 13.067-9.467.267-.666 1.067-1.066 1.733-1.066.667 0 3.734-1.6 6.667-3.467 3.067-1.867 8.267-4.933 11.6-6.8 3.467-1.867 9.867-5.467 14.4-7.867 4.4-2.533 9.067-4.533 10.267-4.533 1.333 0 2.266-.667 2.266-1.467 0-.666 3.467-2.933 7.734-4.8 4.133-1.866 7.866-3.733 8.266-4.266.934-1.2 7.6-5.2 20.667-12.134 21.6-11.6 25.467-13.733 28.933-16.133 1.867-1.467 4-2.533 4.534-2.533.533 0 7.2-3.067 14.666-6.667 7.6-3.733 15.6-7.067 17.867-7.467 2.667-.666 3.867-1.6 3.733-3.066-.266-1.467-2.933-2.534-9.6-3.734-12.133-2.133-14.666-4.4-13.6-12.666.8-5.867.667-6.4-1.733-6.4-1.467 0-3.733 1.466-4.8 3.2-2.133 3.066-16.4 10.933-17.6 9.6-.4-.4.933-2.667 2.8-5.2 4.133-5.334 4.4-8.4.933-9.334-3.733-.933-12.133 4.534-12.133 8 0 2-6.8 5.734-10.667 5.734-3.733 0-3.333-1.467 1.334-6 5.066-4.8 5.333-8.667.666-8.667-2.4 0-3.333-.667-3.333-2.4 0-4.667-4.4-7.067-10.8-6.133-4.8.8-7.6 2.533-15.2 9.733-5.067 4.8-9.867 9.867-10.667 11.333-1.6 3.2-11.6 7.467-17.466 7.467-4.667 0-6.134-2.133-2.534-3.467 1.067-.533 2-1.866 2-3.333 0-1.333 2.534-4.533 5.734-7.067 12.933-10.666 32.8-26.133 33.466-26.133.4 0 4.134-3.467 8.267-7.733 7.467-7.6 13.333-17.734 11.867-20.267-1.067-1.733-7.467-1.733-12.267.133C396.534 77.667 360 112.734 360 118.867c0 .8-.533 1.467-1.2 1.467-.533 0-2.533 2.8-4.266 6.133-2.534 4.8-5.067 7.2-12.534 11.467-5.066 3.066-10.266 6.133-11.333 7.066-2.267 1.734-16.667 7.334-19.067 7.334-2 0 3.867-6 12.4-12.4 4-3.067 8.267-6.267 9.334-7.334 1.066-.933 4.8-3.466 8.4-5.6 5.733-3.6 8.4-8 4.8-8-1.734 0-8.8 3.867-12.134 6.534-1.466 1.2-2.4 1.333-2.4.4 0-.8.667-1.867 1.467-2.4 2.933-1.734 9.2-13.2 9.2-16.8 0-3.734-1.2-4.4-7.333-3.734-2.134.134-10.267 3.467-15.6 6.4-.4.267-1.067-.933-1.334-2.666-.266-2.134-1.066-2.934-2.933-2.667-2.267.4-10.933 6-12.8 8.4-.4.4-2 1.6-3.733 2.4-3.867 2-5.734 3.467-20.8 16.8-10 8.8-45.067 40.8-47.467 43.333-.4.4-2.4 2.134-4.4 4l-3.733 3.2 3.466-7.866c15.734-36.534 36-78.934 43.867-92 8.667-14.534 16.4-22.8 29.733-31.6 7.2-4.8 14.4-9.334 16-10.267 1.6-.8 3.6-2.267 4.667-3.067 4-3.866 13.733-7.2 14.933-5.2.8 1.334-7.066 9.467-13.066 13.467-4.934 3.2-31.334 31.867-36.267 39.2-4.933 7.333-6.267 16.267-2.667 17.6 5.067 2 26.4-7.2 34.934-14.933C320.8 85 323.2 83 323.6 83c1.067 0 11.467-11.733 18.534-21.066 6.266-8.134 7.466-10.8 8.133-16.8.4-4 .133-9.067-.667-11.2-1.2-3.734-.933-4.4 4.534-9.6 5.866-5.6 8.133-10.267 6.666-14-.933-2.4-2-2.4-5.466-.134ZM347.2 23.134c-2.533 2.533-5.2 3.866-6.666 3.6-2-.4-1.467-1.2 2.8-4.134 7.066-4.8 8.933-4.533 3.866.534Zm-.266 16.4c2 4.533-1.334 12.4-9.734 22.933-16.8 21.2-41.333 37.6-47.2 31.6-1.866-1.733-1.333-2.933 4.934-10.8 3.866-4.8 11.6-13.067 17.066-18.4 25.067-24 30.134-28.4 31.734-28.533.933 0 2.266 1.466 3.2 3.2ZM193.2 62.6c2.534 2.267 2.934 4.134 2.934 11.467 0 14.4-12.534 58.933-18.134 64.267-1.466 1.466-8.8 8-16 14.666-7.333 6.534-16.666 15.2-20.666 18.934-4 3.866-8 7.066-8.8 7.066-2 0-16.667-15.6-20.267-21.6-1.733-2.666-3.2-7.466-3.6-10.666C108 140.467 111.2 126.2 114 123c.934-1.066 2.8-4.133 4-6.666 1.334-2.534 2.8-4.934 3.2-5.334.4-.4 4-4.533 8-9.2 4-4.666 10.534-11.6 14.534-15.333 4-3.733 8.4-7.867 9.866-9.2 1.334-1.2 5.6-4.267 9.467-6.533 3.733-2.267 7.867-4.934 8.933-5.867 2.667-2.133 13.467-5.733 16.134-5.333 1.066.133 3.333 1.466 5.066 3.066Zm221.467 16.267c0 1.867-8.4 11.733-14.667 17.067-3.2 2.8-7.2 6.266-8.666 7.866-1.467 1.467-5.2 4.4-8.267 6.534-3.2 2-5.733 4.133-5.733 4.666 0 1.2-6.8 4.267-7.6 3.467-.934-.933 10.933-15.2 17.2-20.667 3.066-2.666 7.066-6.266 8.933-8.133 10-9.733 18.8-14.8 18.8-10.8Zm-76 30c0 5.333-27.733 34.8-41.2 43.6-8.667 5.733-16.267 8.4-16 5.467.133-1.734 15.067-22.267 19.867-27.067 1.066-1.067 3.466-3.733 5.333-6 9.333-10.667 32-22 32-16Zm70.4 12.933c.933 5.067-22 23.467-25.2 20.267-1.333-1.333 10.933-14.533 14.533-15.6 1.334-.533 3.334-2.4 4.267-4.267 2-3.6 5.733-3.866 6.4-.4Zm-237.6 39.467c-6.8 16.8-7.467 18.4-10.8 26L158.4 192.2l-5.333-2c-6.267-2.133-15.733-7.333-15.733-8.533 0-.8 5.466-6 32.533-30.933 3.733-3.334 7.067-6 7.333-5.6.267.266-2.266 7.6-5.733 16.133ZM136 185.4c0 .534 2 1.734 4.4 2.8 8.667 3.6 15.6 6.8 15.6 7.334 0 4.266-17.333 42.133-29.2 63.733-2.266 4.267-6 11.2-8.266 15.333-7.067 12.934-17.467 30.134-21.467 35.2-2 2.667-3.733 5.6-3.733 6.4 0 .8-.534 1.467-1.2 1.467-.534 0-4.8 4.533-9.467 10-15.067 18-38.133 34-48.933 34-10.8 0-17.2-8.933-15.867-21.867.667-7.866 3.333-17.066 5.2-18.933.533-.533.933-1.733.933-2.8 0-.933 1.867-4.8 4.134-8.667C40 289.534 42.267 285.8 46.4 280.334c2.534-3.334 5.734-7.734 7.334-9.867 5.466-7.2 22.133-27.6 25.866-31.467 2-2.133 9.467-9.866 16.4-17.333 6.934-7.467 15.334-16.133 18.534-19.067 3.2-3.066 8.533-8.4 11.866-12 5.467-5.6 9.6-8 9.6-5.2Zm67.467 31.2c-3.067 8-12.4 30.134-25.2 59.334-3.333 7.466-9.333 19.2-13.467 26-9.6 16-8.933 15.2-12.4 16.266-2.533.8-3.066.267-3.866-4.133-1.334-6.8 2-18.8 9.466-34.533 3.334-7.067 6-13.334 6-14 0-.667.534-1.2 1.067-1.2.667 0 2.933-3.467 5.067-7.734 2.133-4.133 5.066-9.2 6.533-11.066 1.467-2 3.867-5.2 5.333-7.334 4.267-6 23.6-29.866 24.267-29.866.133 0-1.067 3.733-2.8 8.266Z"/><path fill="#000" d="M471.334 57.4c-2.934 2.133-9.467 6.667-14.667 10.267-9.867 6.8-30 26-30 28.533 0 .933 4.4-2.267 9.733-6.8 11.334-10 29.6-22.133 38.934-26.133C480.667 61.133 482 59.933 482 57.4c0-4.533-4.533-4.533-10.666 0ZM184 173.401c0 2.533 5.733 6.133 7.2 4.666.4-.533.8-2.266.8-4 0-2.533-.667-3.066-4-3.066-2.933 0-4 .666-4 2.4Z"/></svg>