<svg xmlns="http://www.w3.org/2000/svg" fill="none" viewBox="0 0 912 455"><path fill="currentColor" d="m911.05 222.192-241.55-2.74c-.01 1.83-.017 4.61-.027 6.44l.027 3.608c-.01 1.2.04 3.472.02 4.672l241.52-3.07v-8.9l.01-.01Zm-241.53 7.26v-3.55c0-2.05-.01-4.05-.02-6.07v-.38l-127.25-1.45h-.03c-60.26 0-109.29-49.03-109.29-109.36l-3-108.02H417l-3 108.1c0 60.26-49.02 109.28-109.35 109.28l-304.49 4.3v8.81l304.55 4.69c60.26 0 109.28 49.03 109.29 109.36l3 109.15h12.93l3-109.23c0-60.26 49.03-109.28 109.32-109.28l127.27-1.63c0-1.59-.02-3.072-.02-4.672l.02-.058v.01Zm0-9.63h-.02c0 2.02.02 4.03.02 6.07v-6.07Z"/></svg>